<svg width="452" height="175" viewBox="0 0 452 175" fill="none" xmlns="http://www.w3.org/2000/svg">
<mask id="mask0_8_24" style="mask-type:luminance" maskUnits="userSpaceOnUse" x="0" y="0" width="452" height="175">
<path d="M452 0H0V175H452V0Z" fill="white"/>
</mask>
<g mask="url(#mask0_8_24)">
<path d="M0 105.143C0 105.143 54.24 84.1857 90.4 74.8714C126.56 65.5571 144.64 58.5714 180.8 58.5714C216.96 58.5714 235.04 119.114 271.2 119.114C307.36 119.114 325.44 110.266 361.6 88.8429C397.76 67.42 452 12 452 12V175C452 175 397.76 175 361.6 175C325.44 175 307.36 175 271.2 175C235.04 175 216.96 175 180.8 175C144.64 175 126.56 175 90.4 175C54.24 175 0 175 0 175V105.143Z" fill="#3BC47E" fill-opacity="0.35"/>
<path d="M0 105.043C0 105.043 54.24 84.1087 90.4 74.8043C126.56 65.5 144.64 58.5217 180.8 58.5217C216.96 58.5217 235.04 119 271.2 119C307.36 119 325.44 110.161 361.6 88.7609C397.76 67.3609 452 12 452 12" stroke="#3BC47E" stroke-width="2" stroke-linecap="round" stroke-linejoin="round"/>
</g>
</svg>
